<svg id="Layer_1" data-name="Layer 1" xmlns="http://www.w3.org/2000/svg" viewBox="0 0 24 24"><title>home</title><path d="M19.87,7.67l-6.4-5a2.38,2.38,0,0,0-2.93,0l-6.4,5A5.49,5.49,0,0,0,2,12v8.79a1,1,0,0,0,1,1H21a1,1,0,0,0,1-1V12A5.49,5.49,0,0,0,19.87,7.67Zm-5.8,12.15H9.94V15a1.28,1.28,0,0,1,1.28-1.28h1.56A1.28,1.28,0,0,1,14.06,15Zm5.94,0H16.06V15a3.29,3.29,0,0,0-3.28-3.28H11.22A3.29,3.29,0,0,0,7.94,15v4.8H4V12A3.5,3.5,0,0,1,5.36,9.25l6.4-5a.38.38,0,0,1,.47,0l6.4,5A3.5,3.5,0,0,1,20,12Z" id="id_102" style="fill: rgb(255, 255, 255);"></path></svg>