<svg xmlns="http://www.w3.org/2000/svg" viewBox="0 0 48 48"><title>Yoga</title><g id="Yoga"><circle cx="24" cy="8.5" r="6.5" id="id_101" style="fill: rgb(255, 255, 255);"></circle><path d="M12,10H11V9A1,1,0,0,0,9,9v1H8a1,1,0,0,0,0,2H9v1a1,1,0,0,0,2,0V12h1a1,1,0,0,0,0-2Z" id="id_102" style="fill: rgb(255, 255, 255);"></path><path d="M43,18H42V17a1,1,0,0,0-2,0v1H39a1,1,0,0,0,0,2h1v1a1,1,0,0,0,2,0V20h1a1,1,0,0,0,0-2Z" id="id_103" style="fill: rgb(255, 255, 255);"></path><circle cx="38" cy="10" r="1" id="id_104" style="fill: rgb(255, 255, 255);"></circle><circle cx="5" cy="19" r="1" id="id_105" style="fill: rgb(255, 255, 255);"></circle><path d="M42.442,28.575l-6.191-4.418-3.2-6.393A4.979,4.979,0,0,0,28.577,15H19.423a4.979,4.979,0,0,0-4.476,2.764l-3.2,6.393L5.566,28.569a3.608,3.608,0,0,0-1.122,4.664,3.507,3.507,0,0,0,1.864,1.544,6.018,6.018,0,0,1,8.068-5.162l1.177.429.973-.7a3.4,3.4,0,0,0,.469-.4v1.621l5.291,1.926L24,33.118l6.241-2.271.764-.279v-1.62a3.48,3.48,0,0,0,.466.4l.976.7,1.18-.43a6.012,6.012,0,0,1,8.066,5.173,3.5,3.5,0,0,0,1.915-1.649A3.578,3.578,0,0,0,42.442,28.575Z" id="id_106" style="fill: rgb(255, 255, 255);"></path><path d="M13.3,42.057a3.937,3.937,0,0,0,2.308,3.565,4.008,4.008,0,0,0,3.081.134l2.387-.869Z" id="id_107" style="fill: rgb(255, 255, 255);"></path><path d="M39.476,33.9a4.027,4.027,0,0,0-5.165-2.408l-7.387,2.688,5.827,2.12a6.019,6.019,0,0,1,3.391,3.1l.925-.337A4.035,4.035,0,0,0,39.476,33.9Z" id="id_108" style="fill: rgb(255, 255, 255);"></path><path d="M30.691,46a4.021,4.021,0,0,1-1.38-.245L10.933,39.067a4.029,4.029,0,1,1,2.756-7.573l18.378,6.688h0A4.032,4.032,0,0,1,30.691,46Z" id="id_109" style="fill: rgb(255, 255, 255);"></path></g></svg>