<?xml version="1.0" encoding="UTF-8"?>
<svg width="752pt" height="752pt" version="1.1" viewBox="0 0 752 752" xmlns="http://www.w3.org/2000/svg">
 <g fill="#fff">
  <path d="m527.55 257.61c0-31.258-25.574-56.828-56.828-56.828h-189.43c-31.258 0-56.828 25.574-56.828 56.828v236.79c0 31.258 25.574 56.828 56.828 56.828h189.43c31.258 0 56.828-25.574 56.828-56.828zm-198.9-37.887h94.715v23.68c0 10.418-8.5234 18.941-18.941 18.941l-56.832 0.003906c-10.418 0-18.941-8.5234-18.941-18.941zm179.96 274.68c0 20.836-17.051 37.887-37.887 37.887l-189.43-0.003906c-20.836 0-37.887-17.051-37.887-37.887v-236.79c0-20.836 17.051-37.887 37.887-37.887h28.414v23.68c0 20.836 17.051 37.887 37.887 37.887h56.828c20.836 0 37.887-17.051 37.887-37.887v-23.68h28.414c20.836 0 37.887 17.051 37.887 37.887z"/>
  <path d="m318.22 347.59h115.55v18.941h-115.55z"/>
  <path d="m288.39 399.68h175.23v18.941h-175.23z"/>
  <path d="m288.39 451.77h175.23v18.941h-175.23z"/>
 </g>
</svg>
